{
    "asset" : {
        "generator" : "Khronos glTF Blender I/O v1.1.46",
        "version" : "2.0"
    },
    "extensionsUsed" : [
        "KHR_materials_unlit"
    ],
    "scene" : 0,
    "scenes" : [
        {
            "name" : "Scene",
            "nodes" : [
                0,
                1,
                2,
                3
            ]
        }
    ],
    "nodes" : [
        {
            "mesh" : 0,
            "name" : "room"
        },
        {
            "name" : "Light",
            "rotation" : [
                0.16907575726509094,
                0.7558803558349609,
                -0.27217137813568115,
                0.570947527885437
            ],
            "translation" : [
                3.1367268562316895,
                5.903861999511719,
                -0.02797520160675049
            ]
        },
        {
            "mesh" : 1,
            "name" : "bookcase",
            "scale" : [
                0.5,
                0.5,
                -0.1499999761581421
            ],
            "translation" : [
                1,
                0.550000011920929,
                -0.6664757132530212
            ]
        },
        {
            "mesh" : 2,
            "name" : "shelf",
            "scale" : [
                0.5,
                0.5,
                -0.1499999761581421
            ],
            "translation" : [
                1,
                0.550000011920929,
                -0.6664757132530212
            ]
        }
    ],
    "materials" : [
        {
            "doubleSided" : true,
            "extensions" : {
                "KHR_materials_unlit" : {}
            },
            "name" : "white",
            "pbrMetallicRoughness" : {
                "baseColorFactor" : [
                    0.800000011920929,
                    0.800000011920929,
                    0.800000011920929,
                    1
                ]
            }
        },
        {
            "doubleSided" : true,
            "emissiveFactor" : [
                0,
                0,
                0
            ],
            "name" : "black",
            "pbrMetallicRoughness" : {
                "baseColorFactor" : [
                    0.0159962959587574,
                    0.01599629409611225,
                    0.0159962959587574,
                    1
                ],
                "metallicFactor" : 0,
                "roughnessFactor" : 0.5
            }
        },
        {
            "doubleSided" : true,
            "emissiveFactor" : [
                0,
                0,
                0
            ],
            "name" : "dark-grey",
            "pbrMetallicRoughness" : {
                "baseColorFactor" : [
                    0.09084171056747437,
                    0.09084171056747437,
                    0.09084172546863556,
                    1
                ],
                "metallicFactor" : 0,
                "roughnessFactor" : 0.5
            }
        }
    ],
    "meshes" : [
        {
            "name" : "Cube",
            "primitives" : [
                {
                    "attributes" : {
                        "POSITION" : 0,
                        "NORMAL" : 1,
                        "TEXCOORD_0" : 2
                    },
                    "indices" : 3,
                    "material" : 0
                },
                {
                    "attributes" : {
                        "POSITION" : 4,
                        "NORMAL" : 5,
                        "TEXCOORD_0" : 6
                    },
                    "indices" : 7,
                    "material" : 1
                }
            ]
        },
        {
            "name" : "Cube.004",
            "primitives" : [
                {
                    "attributes" : {
                        "POSITION" : 8,
                        "NORMAL" : 9,
                        "TEXCOORD_0" : 10
                    },
                    "indices" : 11,
                    "material" : 2
                }
            ]
        },
        {
            "name" : "Cube.005",
            "primitives" : [
                {
                    "attributes" : {
                        "POSITION" : 12,
                        "NORMAL" : 13,
                        "TEXCOORD_0" : 14
                    },
                    "indices" : 15,
                    "material" : 2
                }
            ]
        }
    ],
    "accessors" : [
        {
            "bufferView" : 0,
            "componentType" : 5126,
            "count" : 196,
            "max" : [
                2,
                2.049999952316284,
                1
            ],
            "min" : [
                -2,
                0,
                -1
            ],
            "type" : "VEC3"
        },
        {
            "bufferView" : 1,
            "componentType" : 5126,
            "count" : 196,
            "type" : "VEC3"
        },
        {
            "bufferView" : 2,
            "componentType" : 5126,
            "count" : 196,
            "type" : "VEC2"
        },
        {
            "bufferView" : 3,
            "componentType" : 5123,
            "count" : 360,
            "type" : "SCALAR"
        },
        {
            "bufferView" : 4,
            "componentType" : 5126,
            "count" : 20,
            "max" : [
                1.9000000953674316,
                0.10000000149011612,
                0.8999999761581421
            ],
            "min" : [
                -1.899999976158142,
                0.050000011920928955,
                -0.8999999761581421
            ],
            "type" : "VEC3"
        },
        {
            "bufferView" : 5,
            "componentType" : 5126,
            "count" : 20,
            "type" : "VEC3"
        },
        {
            "bufferView" : 6,
            "componentType" : 5126,
            "count" : 20,
            "type" : "VEC2"
        },
        {
            "bufferView" : 7,
            "componentType" : 5123,
            "count" : 36,
            "type" : "SCALAR"
        },
        {
            "bufferView" : 8,
            "componentType" : 5126,
            "count" : 56,
            "max" : [
                1,
                1,
                1
            ],
            "min" : [
                -1,
                -1,
                -1
            ],
            "type" : "VEC3"
        },
        {
            "bufferView" : 9,
            "componentType" : 5126,
            "count" : 56,
            "type" : "VEC3"
        },
        {
            "bufferView" : 10,
            "componentType" : 5126,
            "count" : 56,
            "type" : "VEC2"
        },
        {
            "bufferView" : 11,
            "componentType" : 5123,
            "count" : 84,
            "type" : "SCALAR"
        },
        {
            "bufferView" : 12,
            "componentType" : 5126,
            "count" : 24,
            "max" : [
                0.9118998646736145,
                0.10000000149011612,
                1
            ],
            "min" : [
                -0.9118998646736145,
                0,
                -1
            ],
            "type" : "VEC3"
        },
        {
            "bufferView" : 13,
            "componentType" : 5126,
            "count" : 24,
            "type" : "VEC3"
        },
        {
            "bufferView" : 14,
            "componentType" : 5126,
            "count" : 24,
            "type" : "VEC2"
        },
        {
            "bufferView" : 15,
            "componentType" : 5123,
            "count" : 36,
            "type" : "SCALAR"
        }
    ],
    "bufferViews" : [
        {
            "buffer" : 0,
            "byteLength" : 2352,
            "byteOffset" : 0
        },
        {
            "buffer" : 0,
            "byteLength" : 2352,
            "byteOffset" : 2352
        },
        {
            "buffer" : 0,
            "byteLength" : 1568,
            "byteOffset" : 4704
        },
        {
            "buffer" : 0,
            "byteLength" : 720,
            "byteOffset" : 6272
        },
        {
            "buffer" : 0,
            "byteLength" : 240,
            "byteOffset" : 6992
        },
        {
            "buffer" : 0,
            "byteLength" : 240,
            "byteOffset" : 7232
        },
        {
            "buffer" : 0,
            "byteLength" : 160,
            "byteOffset" : 7472
        },
        {
            "buffer" : 0,
            "byteLength" : 72,
            "byteOffset" : 7632
        },
        {
            "buffer" : 0,
            "byteLength" : 672,
            "byteOffset" : 7704
        },
        {
            "buffer" : 0,
            "byteLength" : 672,
            "byteOffset" : 8376
        },
        {
            "buffer" : 0,
            "byteLength" : 448,
            "byteOffset" : 9048
        },
        {
            "buffer" : 0,
            "byteLength" : 168,
            "byteOffset" : 9496
        },
        {
            "buffer" : 0,
            "byteLength" : 288,
            "byteOffset" : 9664
        },
        {
            "buffer" : 0,
            "byteLength" : 288,
            "byteOffset" : 9952
        },
        {
            "buffer" : 0,
            "byteLength" : 192,
            "byteOffset" : 10240
        },
        {
            "buffer" : 0,
            "byteLength" : 72,
            "byteOffset" : 10432
        }
    ],
    "buffers" : [
        {
            "byteLength" : 10504,
            "uri" : "data:application/octet-stream;base64,"
        }
    ]
}
